<svg width="700" height="700" xmlns="http://www.w3.org/2000/svg">
<line x1="350.000000" y1="350.000000" x2="450.000000" y2="350.000000" stroke="black" stroke-width="2" stroke-linecap="round" stroke-linejoin="round"/><line x1="450.000000" y1="350.000000" x2="520.710678" y2="420.710678" stroke="black" stroke-width="2" stroke-linecap="round" stroke-linejoin="round"/><line x1="520.710678" y1="420.710678" x2="520.710678" y2="520.710678" stroke="black" stroke-width="2" stroke-linecap="round" stroke-linejoin="round"/><line x1="520.710678" y1="520.710678" x2="450.000000" y2="591.421356" stroke="black" stroke-width="2" stroke-linecap="round" stroke-linejoin="round"/><line x1="450.000000" y1="591.421356" x2="350.000000" y2="591.421356" stroke="black" stroke-width="2" stroke-linecap="round" stroke-linejoin="round"/><line x1="350.000000" y1="591.421356" x2="279.289322" y2="520.710678" stroke="black" stroke-width="2" stroke-linecap="round" stroke-linejoin="round"/><line x1="279.289322" y1="520.710678" x2="279.289322" y2="420.710678" stroke="black" stroke-width="2" stroke-linecap="round" stroke-linejoin="round"/><line x1="279.289322" y1="420.710678" x2="350.000000" y2="350.000000" stroke="black" stroke-width="2" stroke-linecap="round" stroke-linejoin="round"/><line x1="350.000000" y1="350.000000" x2="436.602540" y2="400.000000" stroke="red" stroke-width="2" stroke-linecap="round" stroke-linejoin="round"/><line x1="436.602540" y1="400.000000" x2="462.484445" y2="496.592583" stroke="red" stroke-width="2" stroke-linecap="round" stroke-linejoin="round"/><line x1="462.484445" y1="496.592583" x2="412.484445" y2="583.195123" stroke="red" stroke-width="2" stroke-linecap="round" stroke-linejoin="round"/><line x1="412.484445" y1="583.195123" x2="315.891862" y2="609.077028" stroke="red" stroke-width="2" stroke-linecap="round" stroke-linejoin="round"/><line x1="315.891862" y1="609.077028" x2="229.289322" y2="559.077028" stroke="red" stroke-width="2" stroke-linecap="round" stroke-linejoin="round"/><line x1="229.289322" y1="559.077028" x2="203.407417" y2="462.484445" stroke="red" stroke-width="2" stroke-linecap="round" stroke-linejoin="round"/><line x1="203.407417" y1="462.484445" x2="253.407417" y2="375.881905" stroke="red" stroke-width="2" stroke-linecap="round" stroke-linejoin="round"/><line x1="253.407417" y1="375.881905" x2="350.000000" y2="350.000000" stroke="red" stroke-width="2" stroke-linecap="round" stroke-linejoin="round"/><line x1="350.000000" y1="350.000000" x2="400.000000" y2="436.602540" stroke="green" stroke-width="2" stroke-linecap="round" stroke-linejoin="round"/><line x1="400.000000" y1="436.602540" x2="374.118095" y2="533.195123" stroke="green" stroke-width="2" stroke-linecap="round" stroke-linejoin="round"/><line x1="374.118095" y1="533.195123" x2="287.515555" y2="583.195123" stroke="green" stroke-width="2" stroke-linecap="round" stroke-linejoin="round"/><line x1="287.515555" y1="583.195123" x2="190.922972" y2="557.313218" stroke="green" stroke-width="2" stroke-linecap="round" stroke-linejoin="round"/><line x1="190.922972" y1="557.313218" x2="140.922972" y2="470.710678" stroke="green" stroke-width="2" stroke-linecap="round" stroke-linejoin="round"/><line x1="140.922972" y1="470.710678" x2="166.804877" y2="374.118095" stroke="green" stroke-width="2" stroke-linecap="round" stroke-linejoin="round"/><line x1="166.804877" y1="374.118095" x2="253.407417" y2="324.118095" stroke="green" stroke-width="2" stroke-linecap="round" stroke-linejoin="round"/><line x1="253.407417" y1="324.118095" x2="350.000000" y2="350.000000" stroke="green" stroke-width="2" stroke-linecap="round" stroke-linejoin="round"/><line x1="350.000000" y1="350.000000" x2="350.000000" y2="450.000000" stroke="blue" stroke-width="2" stroke-linecap="round" stroke-linejoin="round"/><line x1="350.000000" y1="450.000000" x2="279.289322" y2="520.710678" stroke="blue" stroke-width="2" stroke-linecap="round" stroke-linejoin="round"/><line x1="279.289322" y1="520.710678" x2="179.289322" y2="520.710678" stroke="blue" stroke-width="2" stroke-linecap="round" stroke-linejoin="round"/><line x1="179.289322" y1="520.710678" x2="108.578644" y2="450.000000" stroke="blue" stroke-width="2" stroke-linecap="round" stroke-linejoin="round"/><line x1="108.578644" y1="450.000000" x2="108.578644" y2="350.000000" stroke="blue" stroke-width="2" stroke-linecap="round" stroke-linejoin="round"/><line x1="108.578644" y1="350.000000" x2="179.289322" y2="279.289322" stroke="blue" stroke-width="2" stroke-linecap="round" stroke-linejoin="round"/><line x1="179.289322" y1="279.289322" x2="279.289322" y2="279.289322" stroke="blue" stroke-width="2" stroke-linecap="round" stroke-linejoin="round"/><line x1="279.289322" y1="279.289322" x2="350.000000" y2="350.000000" stroke="blue" stroke-width="2" stroke-linecap="round" stroke-linejoin="round"/><line x1="350.000000" y1="350.000000" x2="300.000000" y2="436.602540" stroke="yellow" stroke-width="2" stroke-linecap="round" stroke-linejoin="round"/><line x1="300.000000" y1="436.602540" x2="203.407417" y2="462.484445" stroke="yellow" stroke-width="2" stroke-linecap="round" stroke-linejoin="round"/><line x1="203.407417" y1="462.484445" x2="116.804877" y2="412.484445" stroke="yellow" stroke-width="2" stroke-linecap="round" stroke-linejoin="round"/><line x1="116.804877" y1="412.484445" x2="90.922972" y2="315.891862" stroke="yellow" stroke-width="2" stroke-linecap="round" stroke-linejoin="round"/><line x1="90.922972" y1="315.891862" x2="140.922972" y2="229.289322" stroke="yellow" stroke-width="2" stroke-linecap="round" stroke-linejoin="round"/><line x1="140.922972" y1="229.289322" x2="237.515555" y2="203.407417" stroke="yellow" stroke-width="2" stroke-linecap="round" stroke-linejoin="round"/><line x1="237.515555" y1="203.407417" x2="324.118095" y2="253.407417" stroke="yellow" stroke-width="2" stroke-linecap="round" stroke-linejoin="round"/><line x1="324.118095" y1="253.407417" x2="350.000000" y2="350.000000" stroke="yellow" stroke-width="2" stroke-linecap="round" stroke-linejoin="round"/><line x1="350.000000" y1="350.000000" x2="263.397460" y2="400.000000" stroke="cyan" stroke-width="2" stroke-linecap="round" stroke-linejoin="round"/><line x1="263.397460" y1="400.000000" x2="166.804877" y2="374.118095" stroke="cyan" stroke-width="2" stroke-linecap="round" stroke-linejoin="round"/><line x1="166.804877" y1="374.118095" x2="116.804877" y2="287.515555" stroke="cyan" stroke-width="2" stroke-linecap="round" stroke-linejoin="round"/><line x1="116.804877" y1="287.515555" x2="142.686782" y2="190.922972" stroke="cyan" stroke-width="2" stroke-linecap="round" stroke-linejoin="round"/><line x1="142.686782" y1="190.922972" x2="229.289322" y2="140.922972" stroke="cyan" stroke-width="2" stroke-linecap="round" stroke-linejoin="round"/><line x1="229.289322" y1="140.922972" x2="325.881905" y2="166.804877" stroke="cyan" stroke-width="2" stroke-linecap="round" stroke-linejoin="round"/><line x1="325.881905" y1="166.804877" x2="375.881905" y2="253.407417" stroke="cyan" stroke-width="2" stroke-linecap="round" stroke-linejoin="round"/><line x1="375.881905" y1="253.407417" x2="350.000000" y2="350.000000" stroke="cyan" stroke-width="2" stroke-linecap="round" stroke-linejoin="round"/><line x1="350.000000" y1="350.000000" x2="250.000000" y2="350.000000" stroke="magenta" stroke-width="2" stroke-linecap="round" stroke-linejoin="round"/><line x1="250.000000" y1="350.000000" x2="179.289322" y2="279.289322" stroke="magenta" stroke-width="2" stroke-linecap="round" stroke-linejoin="round"/><line x1="179.289322" y1="279.289322" x2="179.289322" y2="179.289322" stroke="magenta" stroke-width="2" stroke-linecap="round" stroke-linejoin="round"/><line x1="179.289322" y1="179.289322" x2="250.000000" y2="108.578644" stroke="magenta" stroke-width="2" stroke-linecap="round" stroke-linejoin="round"/><line x1="250.000000" y1="108.578644" x2="350.000000" y2="108.578644" stroke="magenta" stroke-width="2" stroke-linecap="round" stroke-linejoin="round"/><line x1="350.000000" y1="108.578644" x2="420.710678" y2="179.289322" stroke="magenta" stroke-width="2" stroke-linecap="round" stroke-linejoin="round"/><line x1="420.710678" y1="179.289322" x2="420.710678" y2="279.289322" stroke="magenta" stroke-width="2" stroke-linecap="round" stroke-linejoin="round"/><line x1="420.710678" y1="279.289322" x2="350.000000" y2="350.000000" stroke="magenta" stroke-width="2" stroke-linecap="round" stroke-linejoin="round"/><line x1="350.000000" y1="350.000000" x2="263.397460" y2="300.000000" stroke="coral" stroke-width="2" stroke-linecap="round" stroke-linejoin="round"/><line x1="263.397460" y1="300.000000" x2="237.515555" y2="203.407417" stroke="coral" stroke-width="2" stroke-linecap="round" stroke-linejoin="round"/><line x1="237.515555" y1="203.407417" x2="287.515555" y2="116.804877" stroke="coral" stroke-width="2" stroke-linecap="round" stroke-linejoin="round"/><line x1="287.515555" y1="116.804877" x2="384.108138" y2="90.922972" stroke="coral" stroke-width="2" stroke-linecap="round" stroke-linejoin="round"/><line x1="384.108138" y1="90.922972" x2="470.710678" y2="140.922972" stroke="coral" stroke-width="2" stroke-linecap="round" stroke-linejoin="round"/><line x1="470.710678" y1="140.922972" x2="496.592583" y2="237.515555" stroke="coral" stroke-width="2" stroke-linecap="round" stroke-linejoin="round"/><line x1="496.592583" y1="237.515555" x2="446.592583" y2="324.118095" stroke="coral" stroke-width="2" stroke-linecap="round" stroke-linejoin="round"/><line x1="446.592583" y1="324.118095" x2="350.000000" y2="350.000000" stroke="coral" stroke-width="2" stroke-linecap="round" stroke-linejoin="round"/><line x1="350.000000" y1="350.000000" x2="300.000000" y2="263.397460" stroke="gray" stroke-width="2" stroke-linecap="round" stroke-linejoin="round"/><line x1="300.000000" y1="263.397460" x2="325.881905" y2="166.804877" stroke="gray" stroke-width="2" stroke-linecap="round" stroke-linejoin="round"/><line x1="325.881905" y1="166.804877" x2="412.484445" y2="116.804877" stroke="gray" stroke-width="2" stroke-linecap="round" stroke-linejoin="round"/><line x1="412.484445" y1="116.804877" x2="509.077028" y2="142.686782" stroke="gray" stroke-width="2" stroke-linecap="round" stroke-linejoin="round"/><line x1="509.077028" y1="142.686782" x2="559.077028" y2="229.289322" stroke="gray" stroke-width="2" stroke-linecap="round" stroke-linejoin="round"/><line x1="559.077028" y1="229.289322" x2="533.195123" y2="325.881905" stroke="gray" stroke-width="2" stroke-linecap="round" stroke-linejoin="round"/><line x1="533.195123" y1="325.881905" x2="446.592583" y2="375.881905" stroke="gray" stroke-width="2" stroke-linecap="round" stroke-linejoin="round"/><line x1="446.592583" y1="375.881905" x2="350.000000" y2="350.000000" stroke="gray" stroke-width="2" stroke-linecap="round" stroke-linejoin="round"/><line x1="350.000000" y1="350.000000" x2="350.000000" y2="250.000000" stroke="orange" stroke-width="2" stroke-linecap="round" stroke-linejoin="round"/><line x1="350.000000" y1="250.000000" x2="420.710678" y2="179.289322" stroke="orange" stroke-width="2" stroke-linecap="round" stroke-linejoin="round"/><line x1="420.710678" y1="179.289322" x2="520.710678" y2="179.289322" stroke="orange" stroke-width="2" stroke-linecap="round" stroke-linejoin="round"/><line x1="520.710678" y1="179.289322" x2="591.421356" y2="250.000000" stroke="orange" stroke-width="2" stroke-linecap="round" stroke-linejoin="round"/><line x1="591.421356" y1="250.000000" x2="591.421356" y2="350.000000" stroke="orange" stroke-width="2" stroke-linecap="round" stroke-linejoin="round"/><line x1="591.421356" y1="350.000000" x2="520.710678" y2="420.710678" stroke="orange" stroke-width="2" stroke-linecap="round" stroke-linejoin="round"/><line x1="520.710678" y1="420.710678" x2="420.710678" y2="420.710678" stroke="orange" stroke-width="2" stroke-linecap="round" stroke-linejoin="round"/><line x1="420.710678" y1="420.710678" x2="350.000000" y2="350.000000" stroke="orange" stroke-width="2" stroke-linecap="round" stroke-linejoin="round"/><line x1="350.000000" y1="350.000000" x2="400.000000" y2="263.397460" stroke="purple" stroke-width="2" stroke-linecap="round" stroke-linejoin="round"/><line x1="400.000000" y1="263.397460" x2="496.592583" y2="237.515555" stroke="purple" stroke-width="2" stroke-linecap="round" stroke-linejoin="round"/><line x1="496.592583" y1="237.515555" x2="583.195123" y2="287.515555" stroke="purple" stroke-width="2" stroke-linecap="round" stroke-linejoin="round"/><line x1="583.195123" y1="287.515555" x2="609.077028" y2="384.108138" stroke="purple" stroke-width="2" stroke-linecap="round" stroke-linejoin="round"/><line x1="609.077028" y1="384.108138" x2="559.077028" y2="470.710678" stroke="purple" stroke-width="2" stroke-linecap="round" stroke-linejoin="round"/><line x1="559.077028" y1="470.710678" x2="462.484445" y2="496.592583" stroke="purple" stroke-width="2" stroke-linecap="round" stroke-linejoin="round"/><line x1="462.484445" y1="496.592583" x2="375.881905" y2="446.592583" stroke="purple" stroke-width="2" stroke-linecap="round" stroke-linejoin="round"/><line x1="375.881905" y1="446.592583" x2="350.000000" y2="350.000000" stroke="purple" stroke-width="2" stroke-linecap="round" stroke-linejoin="round"/><line x1="350.000000" y1="350.000000" x2="436.602540" y2="300.000000" stroke="brown" stroke-width="2" stroke-linecap="round" stroke-linejoin="round"/><line x1="436.602540" y1="300.000000" x2="533.195123" y2="325.881905" stroke="brown" stroke-width="2" stroke-linecap="round" stroke-linejoin="round"/><line x1="533.195123" y1="325.881905" x2="583.195123" y2="412.484445" stroke="brown" stroke-width="2" stroke-linecap="round" stroke-linejoin="round"/><line x1="583.195123" y1="412.484445" x2="557.313218" y2="509.077028" stroke="brown" stroke-width="2" stroke-linecap="round" stroke-linejoin="round"/><line x1="557.313218" y1="509.077028" x2="470.710678" y2="559.077028" stroke="brown" stroke-width="2" stroke-linecap="round" stroke-linejoin="round"/><line x1="470.710678" y1="559.077028" x2="374.118095" y2="533.195123" stroke="brown" stroke-width="2" stroke-linecap="round" stroke-linejoin="round"/><line x1="374.118095" y1="533.195123" x2="324.118095" y2="446.592583" stroke="brown" stroke-width="2" stroke-linecap="round" stroke-linejoin="round"/><line x1="324.118095" y1="446.592583" x2="350.000000" y2="350.000000" stroke="brown" stroke-width="2" stroke-linecap="round" stroke-linejoin="round"/></svg>
